<svg xmlns="http://www.w3.org/2000/svg" xmlns:xlink="http://www.w3.org/1999/xlink" xmlns:serif="http://www.serif.com/" viewBox="0 0 100 126.25" version="1.1" xml:space="preserve" style="" x="0px" y="0px" fill-rule="evenodd" clip-rule="evenodd" stroke-linejoin="round" stroke-miterlimit="2"><rect serif:id="Page 71" x="0.002" y="0.555" width="100" height="100" style="" fill="none"/><g><path d="M51.745,50.555c0,10.802 -8.769,19.571 -19.571,19.571c-10.801,0 -19.571,-8.769 -19.571,-19.571c0,-10.801 8.77,-19.571 19.571,-19.571c10.802,0 19.571,8.77 19.571,19.571Z"/><path d="M66.919,23.4c0.3,-0.012 0.604,-0.017 0.911,-0.017c14.997,0 27.172,12.176 27.172,27.172c0,14.997 -12.175,27.172 -27.172,27.172l-34.743,0l-0.002,-0.017c-0.3,0.012 -0.603,0.017 -0.911,0.017c-14.996,0 -27.172,-12.175 -27.172,-27.172c0,-14.996 12.176,-27.172 27.172,-27.172l34.744,0l0.001,0.017Zm-0.117,3.84c0.337,-0.015 0.68,-0.023 1.028,-0.023c12.881,0 23.339,10.457 23.339,23.338c-0,12.881 -10.458,23.338 -23.339,23.338l-34.743,0l0.115,-0.023c-0.337,0.016 -0.68,0.023 -1.028,0.023c-12.88,0 -23.338,-10.457 -23.338,-23.338c0,-12.881 10.458,-23.338 23.338,-23.338l34.744,0l-0.116,0.023Z"/></g><text x="0" y="116" fill="#000000" font-size="5px" font-weight="bold" font-family="'Helvetica Neue', Helvetica, Arial-Unicode, Arial, Sans-serif">Created by Zach Bogart</text><text x="0" y="121" fill="#000000" font-size="5px" font-weight="bold" font-family="'Helvetica Neue', Helvetica, Arial-Unicode, Arial, Sans-serif">from the Noun Project</text></svg>