<svg id="Camada_1" data-name="Camada 1" xmlns="http://www.w3.org/2000/svg" xmlns:xlink="http://www.w3.org/1999/xlink" viewBox="0 0 380.42 684.7"><defs><style>.cls-1,.cls-2{fill:#1d1d1b;}.cls-1,.cls-6{stroke:#1d1d1b;}.cls-1,.cls-4,.cls-5,.cls-6{stroke-miterlimit:10;}.cls-3{fill:url(#Gradiente_sem_nome_206);}.cls-4{fill:#fff;stroke:#fff;}.cls-5{stroke-width:13px;fill:url(#Gradiente_sem_nome_82);stroke:url(#Gradiente_sem_nome_116);}.cls-6{fill:none;}</style><radialGradient id="Gradiente_sem_nome_206" cx="224.24" cy="228" r="55.49" gradientUnits="userSpaceOnUse"><stop offset="0.13" stop-color="#424242" stop-opacity="0.3"/><stop offset="0.53" stop-color="#797979" stop-opacity="0.21"/><stop offset="1" stop-color="#fff" stop-opacity="0"/></radialGradient><linearGradient id="Gradiente_sem_nome_82" y1="6.5" x2="77.93" y2="6.5" gradientUnits="userSpaceOnUse"><stop offset="0" stop-color="#6c6c6c"/><stop offset="0.36" stop-color="#6e6e6e"/><stop offset="0.52" stop-color="#757575"/><stop offset="0.64" stop-color="#828282"/><stop offset="0.73" stop-color="#949494"/><stop offset="0.82" stop-color="#ababab"/><stop offset="0.89" stop-color="#c7c7c7"/><stop offset="0.96" stop-color="#e8e8e8"/><stop offset="1" stop-color="#fff"/></linearGradient><linearGradient id="Gradiente_sem_nome_116" y1="6.5" x2="77.93" y2="6.5" gradientUnits="userSpaceOnUse"><stop offset="0.04"/><stop offset="0.08" stop-color="#101010"/><stop offset="0.35" stop-color="#646464"/><stop offset="0.58" stop-color="#a6a6a6"/><stop offset="0.77" stop-color="#d6d6d6"/><stop offset="0.92" stop-color="#f4f4f4"/><stop offset="1" stop-color="#fff"/></linearGradient></defs><circle class="cls-1" cx="192.37" cy="32.27" r="9.81"/><path class="cls-2" d="M200.74-544.25l-6.81,18.72-4.68,12.86c-.39,1.06-1.79,5.56-2,5.63s-4.81-2-5.68-2.31L168.74-514,150-520.84l.33,22.1,6.81-18.72,4.68-12.86c.39-1.07,1.79-5.57,2-5.63s4.8,2,5.67,2.31L182.36-529l18.71,6.81c.83.3,1.24-10.43,1.24-11.25,0-1.57.72-10.54-1.24-11.25l-37.43-13.62-.33.4-13.62,37.43c-1.33,3.67-.95,8.54-.88,12.34,0,1.5-.51,9.13,1.21,9.76l37.43,13.62.33-.4,13.62-37.43c1.51-4.14,1-9.52.86-13.84-.06-2,.28-5-.56-6.72C201.59-543.33,201.21-545.53,200.74-544.25Z" transform="translate(177.96 584.8)"/><ellipse class="cls-3" cx="224.24" cy="228" rx="50.27" ry="60.26"/><path class="cls-4" d="M28-367.19a23.12,23.12,0,0,0-1.7,6.13c-.45,3.12-1.1,7.69.85,12.26,2.29,5.36,7,7.88,9.7,9.36,1.55.84,10.35,5.59,19.57,2.21a25.11,25.11,0,0,0,8.17-5.27c2.32-2.05,4.8-4.24,6.3-8a20.1,20.1,0,0,0,1.19-8.34c0-3.46-.08-5.45-1.36-7.32s-2.86-2.3-8-4.26c-9.26-3.53-7.9-3.53-9.87-3.91-5.2-1-5.06.86-14.13.51-3.06-.12-4.64-.39-6.47.68C30-371.83,29-369.43,28-367.19Z" transform="translate(177.96 584.8)"/><path class="cls-4" d="M27.79-404.95c4.41-3.8,15.51-3.92,22.43-.9,15.46,6.76,10.19,29.36,2.13,31.1-2.78.61-5.79-1.32-9.61-3.75C31.86-385.46,20.9-399,27.79-404.95Z" transform="translate(177.96 584.8)"/><line class="cls-5" y1="6.5" x2="77.93" y2="6.5"/><image width="10026" height="9865" transform="translate(34.8 148.19) scale(0)" xlink:href="../../PROJECTOS%20FILIPA/projecto%20aldeia/CAU%202021%20DGARTES-CRIA%C3%87%C3%83O/OPERACIONAL/DESIGN%20GR%C3%81FICO%20PLANO%20DE%20MEIOS/logotipo%20cau/cau%20simbolo-Model.jpg"/><path class="cls-2" d="M6.83-177.2H91.1l-.49-4.5v26.6l.49-4.5H6.83l.5,4.5v-26.6c0-.42.07-4.5-.5-4.5s-.49,4.34-.49,4.5v26.6c0,.34-.06,4.5.49,4.5H91.1c.56,0,.5-4.36.5-4.5v-26.6c0-.35.06-4.5-.5-4.5H6.83C6.11-186.2,6.09-177.2,6.83-177.2Z" transform="translate(177.96 584.8)"/><path class="cls-2" d="M54.54-92C43-91.91,28-89,20.4-79.47,12-68.89,16.91-51.93,24.68-42.64,33.37-32.26,47.29-24.16,61-28.9c13.12-4.52,18.88-17.3,20.25-30.26.74-7,.34-14.35-3.64-20.38C72.3-87.6,64.07-91.7,54.54-92c-.65,0-.83,9,0,9,7.1.2,13.49,2.25,18.73,7.22,3.1,2.94,7.3,8,6.92,12.66C79.3-52.34,72-42,62-38.24c-11.73,4.45-23.86-.5-32.68-8.57a43.88,43.88,0,0,1-9.44-12,30.21,30.21,0,0,1-2-5c-.81-2.7-.63.75-.26-1.15a8.8,8.8,0,0,1,.54-1.67A17.52,17.52,0,0,1,23-73.15c8.21-7.25,20.9-9.76,31.57-9.81C55.27-83,55.27-92,54.54-92Z" transform="translate(177.96 584.8)"/><path class="cls-6" d="M202.72-301" transform="translate(177.96 584.8)"/><path class="cls-2" d="M47.89,28.38c-1.48,2.1-2.76,4.52-5.66,4.52-2,0-3.8-1-5.93-.79-6.22.5-3.53,5.11-7.6,8.28C22.13,45.51,10,38.76,7,49.25c-2.29,8,.6,20,7.39,25.13,4,3,8.86,1,13,3.18S30,88.2,31.85,92.45c5,11.36,17.53,7.39,26.13,3.33,5.35-2.52,10.34-4.57,16.35-4.06,4.68.4,9.34.73,11-4.64A18.45,18.45,0,0,0,85,76.77a13.31,13.31,0,0,0-3.67-5.29,17.42,17.42,0,0,0-2.62-2.33c-.5-1.33-1.09-1.54-1.76-.61A7.55,7.55,0,0,1,79.42,67c4.5-2.41,8.22-4.22,10.62-9.13a19.25,19.25,0,0,0,1.15-12c-1-4.67-4-5.46-8.32-5.84-2.52-.22-5-.43-6.64-2.68s-2-5.64-3.43-8.16c-5.86-10-18.12-9.47-24.91-.8-1,1.27-.7,4-.54,5.51,0,.36.58,4,1.27,3.09,5.77-7.37,16.12-9.18,22.43-1.31,2.48,3.1,2.52,7.24,4.87,10.3C78,48.67,81.07,48.73,84.2,49c1.37.13,3.55.16,4.58,1.22,2,2.07-.08,0-.21.39a9.93,9.93,0,0,1-2.39,3c-2.88,3-8,3.54-10.32,6.82-4,5.52-.69,14.27,3.67,18.32a50.58,50.58,0,0,1,3.78,3.83l0-1.46L81.6,82.48a7.06,7.06,0,0,1-2.28.68c-2.58.36-5.22-.55-7.78-.55a22,22,0,0,0-7.43,1.45c-8.54,3-19,11.39-28,4.86-6.72-4.9-1.27-16.1-8.56-20.18-3.05-1.71-6.78-.68-10-1.61-4-1.15-10.86-8.56-8-12.83C14,47.64,26,54.59,31,47.37c1.23-1.79,1.13-4.85,3.26-6,1.65-.87,4.2-.43,5.93-.09,4.51.89,5.87-.63,8.47-4.32,1-1.36.71-3.95.55-5.51C49.13,31.13,48.53,27.48,47.89,28.38Z" transform="translate(177.96 584.8)"/></svg>