<svg id="Camada_1" data-name="Camada 1" xmlns="http://www.w3.org/2000/svg" xmlns:xlink="http://www.w3.org/1999/xlink" viewBox="0 0 380.42 684.7"><defs><style>.cls-1,.cls-2{fill:#1d1d1b;}.cls-1,.cls-6{stroke:#1d1d1b;}.cls-1,.cls-4,.cls-5,.cls-6{stroke-miterlimit:10;}.cls-3{fill:url(#Gradiente_sem_nome_206);}.cls-4{fill:#fff;stroke:#fff;}.cls-5{stroke-width:13px;fill:url(#Gradiente_sem_nome_82);stroke:url(#Gradiente_sem_nome_116);}.cls-6{fill:none;}</style><radialGradient id="Gradiente_sem_nome_206" cx="224.24" cy="228" r="55.49" gradientUnits="userSpaceOnUse"><stop offset="0.13" stop-color="#424242" stop-opacity="0.3"/><stop offset="0.53" stop-color="#797979" stop-opacity="0.21"/><stop offset="1" stop-color="#fff" stop-opacity="0"/></radialGradient><linearGradient id="Gradiente_sem_nome_82" y1="6.5" x2="77.93" y2="6.5" gradientUnits="userSpaceOnUse"><stop offset="0" stop-color="#6c6c6c"/><stop offset="0.36" stop-color="#6e6e6e"/><stop offset="0.52" stop-color="#757575"/><stop offset="0.64" stop-color="#828282"/><stop offset="0.73" stop-color="#949494"/><stop offset="0.82" stop-color="#ababab"/><stop offset="0.89" stop-color="#c7c7c7"/><stop offset="0.96" stop-color="#e8e8e8"/><stop offset="1" stop-color="#fff"/></linearGradient><linearGradient id="Gradiente_sem_nome_116" y1="6.5" x2="77.93" y2="6.5" gradientUnits="userSpaceOnUse"><stop offset="0.04"/><stop offset="0.08" stop-color="#101010"/><stop offset="0.35" stop-color="#646464"/><stop offset="0.58" stop-color="#a6a6a6"/><stop offset="0.77" stop-color="#d6d6d6"/><stop offset="0.92" stop-color="#f4f4f4"/><stop offset="1" stop-color="#fff"/></linearGradient></defs><circle class="cls-1" cx="192.37" cy="32.27" r="9.81"/><path class="cls-2" d="M391.72,62.14l-6.81,18.71-4.68,12.87c-.39,1.06-1.79,5.56-2,5.62s-4.8-2-5.67-2.31l-12.87-4.68L341,85.54l.33,22.1,6.81-18.72,4.68-12.86c.39-1.06,1.79-5.56,2-5.63s4.8,2,5.67,2.31l12.87,4.68,18.71,6.81c.83.3,1.24-10.42,1.24-11.25,0-1.57.72-10.53-1.24-11.25L354.62,48.11l-.33.4L340.67,85.94c-1.33,3.67-.95,8.54-.89,12.35,0,1.49-.51,9.12,1.22,9.75l37.43,13.62.33-.4,13.62-37.43c1.5-4.13,1-9.51.86-13.84-.06-2,.28-5-.57-6.72C392.57,63.06,392.19,60.85,391.72,62.14Z" transform="translate(-13.01 -21.59)"/><ellipse class="cls-3" cx="224.24" cy="228" rx="50.27" ry="60.26"/><path class="cls-4" d="M219,239.2a23.28,23.28,0,0,0-1.71,6.13c-.44,3.11-1.09,7.68.86,12.25,2.28,5.36,7,7.88,9.7,9.36,1.55.84,10.35,5.59,19.57,2.22a25.12,25.12,0,0,0,8.17-5.28c2.32-2.05,4.8-4.23,6.3-8a20.1,20.1,0,0,0,1.19-8.34c-.05-3.46-.08-5.45-1.36-7.32s-2.86-2.29-8-4.26c-9.26-3.53-7.9-3.53-9.87-3.91-5.2-1-5.06.86-14.13.51-3.06-.12-4.64-.39-6.47.68C221,234.55,220,237,219,239.2Z" transform="translate(-13.01 -21.59)"/><path class="cls-4" d="M218.77,201.43c4.41-3.79,15.51-3.92,22.43-.9,15.46,6.76,10.18,29.36,2.13,31.11-2.79.6-5.8-1.32-9.61-3.76C222.83,220.92,211.88,207.36,218.77,201.43Z" transform="translate(-13.01 -21.59)"/><line class="cls-5" y1="6.5" x2="77.93" y2="6.5"/><image width="10026" height="9865" transform="translate(34.8 148.19) scale(0)" xlink:href="../../PROJECTOS%20FILIPA/projecto%20aldeia/CAU%202021%20DGARTES-CRIA%C3%87%C3%83O/OPERACIONAL/DESIGN%20GR%C3%81FICO%20PLANO%20DE%20MEIOS/logotipo%20cau/cau%20simbolo-Model.jpg"/><path class="cls-2" d="M197.81,429.18h84.27l-.49-4.5v26.6l.49-4.5H197.81l.5,4.5v-26.6c0-.42.07-4.5-.5-4.5s-.49,4.35-.49,4.5v26.6c0,.35-.06,4.5.49,4.5h84.27c.56,0,.5-4.36.5-4.5v-26.6c0-.34.06-4.5-.5-4.5H197.81C197.09,420.18,197.06,429.18,197.81,429.18Z" transform="translate(-13.01 -21.59)"/><path class="cls-2" d="M245.51,514.43c-11.5,0-26.56,3-34.13,12.48-8.44,10.58-3.49,27.54,4.28,36.83,8.69,10.38,22.61,18.48,36.34,13.75,13.13-4.53,18.89-17.31,20.26-30.27.74-7,.34-14.34-3.65-20.37-5.33-8.07-13.56-12.16-23.1-12.42-.64,0-.82,9,0,9,7.11.19,13.5,2.24,18.74,7.21,3.1,3,7.3,8.05,6.92,12.67-.89,10.74-8.21,21-18.22,24.83-11.73,4.45-23.86-.49-32.68-8.57a44,44,0,0,1-9.44-12,30.31,30.31,0,0,1-2-5c-.82-2.7-.63.76-.26-1.15a9.82,9.82,0,0,1,.53-1.67,17.73,17.73,0,0,1,4.82-6.55c8.21-7.25,20.9-9.76,31.56-9.8C246.25,523.43,246.25,514.43,245.51,514.43Z" transform="translate(-13.01 -21.59)"/><path class="cls-6" d="M393.7,305.36" transform="translate(-13.01 -21.59)"/><path class="cls-2" d="M238.87,634.76c-1.48,2.11-2.76,4.53-5.66,4.53-2,0-3.8-1-5.93-.8-6.22.5-3.53,5.11-7.6,8.28-6.58,5.12-18.71-1.63-21.72,8.86-2.29,8,.6,20,7.39,25.14,4,3,8.86,1,13,3.17s2.62,10.65,4.49,14.89c5,11.36,17.53,7.39,26.13,3.34,5.35-2.53,10.34-4.58,16.35-4.06,4.68.39,9.34.72,11-4.64a18.45,18.45,0,0,0-.29-10.31,13.34,13.34,0,0,0-3.67-5.29,17,17,0,0,0-2.63-2.33c-.49-1.34-1.08-1.55-1.75-.62a7.32,7.32,0,0,1,2.45-1.53c4.51-2.42,8.23-4.23,10.63-9.14a19.25,19.25,0,0,0,1.15-12c-1-4.67-4-5.46-8.32-5.84-2.52-.22-5-.43-6.65-2.67s-1.95-5.64-3.42-8.17c-5.86-10-18.12-9.47-24.91-.8-1,1.27-.7,4-.55,5.51,0,.36.59,4,1.28,3.09,5.77-7.36,16.12-9.18,22.42-1.31,2.49,3.1,2.53,7.24,4.88,10.31,2.07,2.7,5.15,2.75,8.28,3,1.37.13,3.55.15,4.58,1.22,2,2.06-.08,0-.21.38a10,10,0,0,1-2.39,3c-2.88,3-8,3.54-10.32,6.81-4,5.52-.69,14.28,3.67,18.32,1.35,1.26,2.57,2.46,3.78,3.83l-.05-1.45-1.66,1.31a7.28,7.28,0,0,1-2.29.67c-2.57.37-5.21-.54-7.77-.55a22.25,22.25,0,0,0-7.43,1.45c-8.54,3-19,11.4-28,4.86-6.72-4.9-1.27-16.1-8.56-20.18-3-1.71-6.78-.67-10-1.61-4-1.15-10.86-8.56-8-12.83,4.45-6.66,16.43.3,21.41-6.93,1.23-1.78,1.13-4.85,3.27-6,1.65-.87,4.2-.43,5.93-.08,4.51.88,5.87-.63,8.47-4.33,1-1.36.71-4,.55-5.51C240.11,637.51,239.51,633.86,238.87,634.76Z" transform="translate(-13.01 -21.59)"/></svg>