<svg id="Camada_1" data-name="Camada 1" xmlns="http://www.w3.org/2000/svg" xmlns:xlink="http://www.w3.org/1999/xlink" viewBox="0 0 380.42 684.7"><defs><style>.cls-1,.cls-2{fill:#1d1d1b;}.cls-1,.cls-6{stroke:#1d1d1b;}.cls-1,.cls-4,.cls-5,.cls-6{stroke-miterlimit:10;}.cls-3{fill:url(#Gradiente_sem_nome_206);}.cls-4{fill:#fff;stroke:#fff;}.cls-5{stroke-width:13px;fill:url(#Gradiente_sem_nome_82);stroke:url(#Gradiente_sem_nome_116);}.cls-6{fill:none;}</style><radialGradient id="Gradiente_sem_nome_206" cx="224.24" cy="228" r="55.49" gradientUnits="userSpaceOnUse"><stop offset="0.13" stop-color="#424242" stop-opacity="0.3"/><stop offset="0.53" stop-color="#797979" stop-opacity="0.21"/><stop offset="1" stop-color="#fff" stop-opacity="0"/></radialGradient><linearGradient id="Gradiente_sem_nome_82" y1="6.5" x2="77.93" y2="6.5" gradientUnits="userSpaceOnUse"><stop offset="0" stop-color="#6c6c6c"/><stop offset="0.36" stop-color="#6e6e6e"/><stop offset="0.52" stop-color="#757575"/><stop offset="0.64" stop-color="#828282"/><stop offset="0.73" stop-color="#949494"/><stop offset="0.82" stop-color="#ababab"/><stop offset="0.89" stop-color="#c7c7c7"/><stop offset="0.96" stop-color="#e8e8e8"/><stop offset="1" stop-color="#fff"/></linearGradient><linearGradient id="Gradiente_sem_nome_116" y1="6.5" x2="77.93" y2="6.5" gradientUnits="userSpaceOnUse"><stop offset="0.04"/><stop offset="0.08" stop-color="#101010"/><stop offset="0.35" stop-color="#646464"/><stop offset="0.58" stop-color="#a6a6a6"/><stop offset="0.77" stop-color="#d6d6d6"/><stop offset="0.92" stop-color="#f4f4f4"/><stop offset="1" stop-color="#fff"/></linearGradient></defs><circle class="cls-1" cx="192.37" cy="32.27" r="9.81"/><path class="cls-2" d="M232.91-102.29,226.1-83.58l-4.68,12.87c-.39,1.06-1.79,5.56-2,5.63s-4.8-2-5.68-2.31l-12.86-4.68-18.72-6.82.33,22.1,6.81-18.71L194-88.37c.39-1.06,1.79-5.56,2-5.62s4.8,2,5.67,2.3L214.53-87l18.71,6.81c.83.3,1.24-10.43,1.24-11.25,0-1.57.72-10.54-1.24-11.25l-37.43-13.62-.33.4L181.86-78.48c-1.33,3.67-1,8.54-.88,12.34,0,1.49-.51,9.13,1.21,9.75l37.43,13.63.33-.41,13.62-37.42c1.51-4.14,1-9.52.86-13.84-.06-2,.28-5-.56-6.73C233.76-101.37,233.38-103.57,232.91-102.29Z" transform="translate(145.79 142.84)"/><ellipse class="cls-3" cx="224.24" cy="228" rx="50.27" ry="60.26"/><path class="cls-4" d="M60.18,74.77a23,23,0,0,0-1.7,6.13c-.45,3.11-1.1,7.69.85,12.26,2.29,5.36,7,7.87,9.7,9.36,1.55.84,10.35,5.58,19.57,2.21a25,25,0,0,0,8.17-5.28c2.32-2,4.8-4.23,6.3-8a20.08,20.08,0,0,0,1.19-8.34c-.05-3.45-.08-5.45-1.36-7.32s-2.86-2.29-8-4.25C85.64,68,87,68,85,67.62c-5.2-1-5.06.86-14.13.51-3.06-.11-4.64-.39-6.47.68C62.2,70.12,61.15,72.53,60.18,74.77Z" transform="translate(145.79 142.84)"/><path class="cls-4" d="M60,37c4.41-3.8,15.51-3.93,22.43-.9,15.46,6.76,10.19,29.36,2.14,31.1-2.79.6-5.8-1.32-9.62-3.76C64,56.49,53.07,42.94,60,37Z" transform="translate(145.79 142.84)"/><line class="cls-5" y1="6.5" x2="77.93" y2="6.5"/><image width="10026" height="9865" transform="translate(34.8 148.19) scale(0)" xlink:href="../../PROJECTOS%20FILIPA/projecto%20aldeia/CAU%202021%20DGARTES-CRIA%C3%87%C3%83O/OPERACIONAL/DESIGN%20GR%C3%81FICO%20PLANO%20DE%20MEIOS/logotipo%20cau/cau%20simbolo-Model.jpg"/><path class="cls-2" d="M39,264.76h84.27l-.49-4.5v26.6l.49-4.5H39l.5,4.5v-26.6c0-.43.07-4.5-.5-4.5s-.49,4.34-.49,4.5v26.6c0,.34-.06,4.5.49,4.5h84.27c.56,0,.5-4.37.5-4.5v-26.6c0-.35.06-4.5-.5-4.5H39C38.28,255.76,38.26,264.76,39,264.76Z" transform="translate(145.79 142.84)"/><path class="cls-2" d="M86.71,350c-11.51.05-26.57,3-34.14,12.48-8.44,10.59-3.49,27.54,4.28,36.83,8.69,10.39,22.61,18.49,36.35,13.75,13.12-4.52,18.88-17.3,20.25-30.26.74-7,.34-14.35-3.64-20.38-5.34-8.06-13.57-12.16-23.1-12.42-.65,0-.83,9,0,9,7.1.2,13.49,2.25,18.73,7.22,3.1,2.94,7.3,8,6.92,12.66-.88,10.74-8.21,21-18.22,24.83-11.73,4.45-23.86-.49-32.68-8.57a43.68,43.68,0,0,1-9.44-12,29.3,29.3,0,0,1-2-4.95c-.82-2.71-.64.75-.27-1.16a9,9,0,0,1,.54-1.67,17.56,17.56,0,0,1,4.81-6.54C63.35,361.55,76,359,86.71,359,87.44,359,87.44,350,86.71,350Z" transform="translate(145.79 142.84)"/><path class="cls-6" d="M234.89,140.94" transform="translate(145.79 142.84)"/><path class="cls-2" d="M80.06,470.34c-1.48,2.1-2.76,4.52-5.66,4.52-2,0-3.8-1-5.93-.8-6.22.51-3.53,5.11-7.6,8.29-6.57,5.12-18.71-1.63-21.72,8.86-2.29,8,.61,20,7.39,25.13,4,3,8.86,1,13,3.17s2.62,10.65,4.49,14.9c5,11.36,17.53,7.39,26.13,3.33,5.35-2.52,10.34-4.57,16.35-4.06,4.68.4,9.34.72,11-4.64a18.45,18.45,0,0,0-.29-10.31,13.31,13.31,0,0,0-3.67-5.29,17.42,17.42,0,0,0-2.62-2.33c-.5-1.34-1.08-1.54-1.76-.62a7.52,7.52,0,0,1,2.46-1.53c4.5-2.42,8.23-4.23,10.62-9.13a19.25,19.25,0,0,0,1.15-12c-1-4.68-4-5.47-8.32-5.85-2.52-.22-5-.42-6.64-2.67s-2-5.64-3.43-8.17c-5.86-10-18.12-9.46-24.91-.79-1,1.27-.7,4-.54,5.51,0,.36.58,4,1.27,3.09,5.77-7.37,16.12-9.19,22.43-1.31,2.48,3.1,2.52,7.24,4.87,10.3,2.07,2.7,5.15,2.76,8.28,3.05,1.37.13,3.55.15,4.58,1.22,2,2.07-.08,0-.21.38a9.85,9.85,0,0,1-2.39,3c-2.88,3-8,3.54-10.32,6.82-4,5.52-.68,14.27,3.67,18.32a50.58,50.58,0,0,1,3.78,3.83l0-1.46-1.66,1.31a7,7,0,0,1-2.28.67c-2.58.37-5.22-.54-7.78-.54A22.24,22.24,0,0,0,96.28,526c-8.54,3-19,11.4-28,4.86-6.72-4.9-1.27-16.09-8.56-20.18-3-1.7-6.78-.67-10-1.6-4-1.16-10.86-8.56-8-12.83,4.45-6.66,16.43.29,21.42-6.93,1.23-1.79,1.13-4.85,3.26-6,1.65-.88,4.2-.43,5.93-.09,4.51.89,5.87-.63,8.47-4.32,1-1.36.71-4,.55-5.51C81.3,473.09,80.7,469.43,80.06,470.34Z" transform="translate(145.79 142.84)"/></svg>