<svg id="Camada_1" data-name="Camada 1" xmlns="http://www.w3.org/2000/svg" xmlns:xlink="http://www.w3.org/1999/xlink" viewBox="0 0 380.42 684.7"><defs><style>.cls-1,.cls-2{fill:#1d1d1b;}.cls-1,.cls-6{stroke:#1d1d1b;}.cls-1,.cls-4,.cls-5,.cls-6{stroke-miterlimit:10;}.cls-3{fill:url(#Gradiente_sem_nome_119);}.cls-4{fill:#fff;stroke:#fff;}.cls-5{stroke-width:13px;fill:url(#Gradiente_sem_nome_82);stroke:url(#Gradiente_sem_nome_116);}.cls-6{fill:none;}</style><radialGradient id="Gradiente_sem_nome_119" cx="224.24" cy="228" r="55.49" gradientUnits="userSpaceOnUse"><stop offset="0" stop-color="#6c6c6c"/><stop offset="0.03" stop-color="#767676"/><stop offset="0.18" stop-color="#a7a7a7"/><stop offset="0.32" stop-color="#cdcdcd"/><stop offset="0.46" stop-color="#e8e8e8"/><stop offset="0.57" stop-color="#f9f9f9"/><stop offset="0.66" stop-color="#fff"/></radialGradient><linearGradient id="Gradiente_sem_nome_82" y1="6.5" x2="77.93" y2="6.5" gradientUnits="userSpaceOnUse"><stop offset="0" stop-color="#6c6c6c"/><stop offset="0.36" stop-color="#6e6e6e"/><stop offset="0.52" stop-color="#757575"/><stop offset="0.64" stop-color="#828282"/><stop offset="0.73" stop-color="#949494"/><stop offset="0.82" stop-color="#ababab"/><stop offset="0.89" stop-color="#c7c7c7"/><stop offset="0.96" stop-color="#e8e8e8"/><stop offset="1" stop-color="#fff"/></linearGradient><linearGradient id="Gradiente_sem_nome_116" y1="6.5" x2="77.93" y2="6.5" gradientUnits="userSpaceOnUse"><stop offset="0.04"/><stop offset="0.08" stop-color="#101010"/><stop offset="0.35" stop-color="#646464"/><stop offset="0.58" stop-color="#a6a6a6"/><stop offset="0.77" stop-color="#d6d6d6"/><stop offset="0.92" stop-color="#f4f4f4"/><stop offset="1" stop-color="#fff"/></linearGradient></defs><circle class="cls-1" cx="192.37" cy="32.27" r="9.81"/><path class="cls-2" d="M84.32,44.77,77.51,63.49,72.82,76.35c-.38,1.07-1.78,5.56-2,5.63s-4.8-2-5.67-2.31L52.31,75,33.6,68.18l.33,22.1,6.81-18.72L45.42,58.7c.38-1.06,1.79-5.56,2-5.63s4.8,2,5.68,2.31l12.86,4.68,18.72,6.81c.82.3,1.23-10.43,1.23-11.25,0-1.57.73-10.53-1.23-11.25L47.22,30.75l-.33.4L33.27,68.58c-1.34,3.67-1,8.54-.89,12.34,0,1.5-.51,9.13,1.22,9.76L71,104.3l.33-.4L85,66.47c1.51-4.14,1-9.52.87-13.84-.06-2,.27-5-.57-6.72C85.17,45.7,84.78,43.49,84.32,44.77Z" transform="translate(294.39 -4.22)"/><ellipse class="cls-3" cx="224.24" cy="228" rx="50.27" ry="60.26"/><path class="cls-4" d="M-88.42,221.84a23.71,23.71,0,0,0-1.7,6.12c-.45,3.12-1.1,7.69.85,12.26,2.29,5.36,7,7.88,9.7,9.36,1.56.84,10.36,5.59,19.58,2.21a25.22,25.22,0,0,0,8.17-5.27c2.32-2.05,4.79-4.23,6.3-8a20.26,20.26,0,0,0,1.19-8.34c-.06-3.46-.09-5.45-1.36-7.32s-2.86-2.3-8-4.26c-9.27-3.53-7.91-3.53-9.88-3.91-5.2-1-5.05.86-14.12.51-3.07-.12-4.65-.39-6.47.68C-86.39,217.19-87.44,219.59-88.42,221.84Z" transform="translate(294.39 -4.22)"/><path class="cls-4" d="M-79.4,179.79c3.52-4.3,12.37-4.44,17.88-1,12.32,7.66,8.11,33.26,1.7,35.24-2.22.68-4.62-1.5-7.66-4.26C-76.16,201.87-84.89,186.51-79.4,179.79Z" transform="translate(294.39 -4.22)"/><line class="cls-5" y1="6.5" x2="77.93" y2="6.5"/><image width="10026" height="9865" transform="translate(34.8 148.19) scale(0)" xlink:href="../../PROJECTOS%20FILIPA/projecto%20aldeia/CAU%202021%20DGARTES-CRIA%C3%87%C3%83O/OPERACIONAL/DESIGN%20GR%C3%81FICO%20PLANO%20DE%20MEIOS/logotipo%20cau/cau%20simbolo-Model.jpg"/><path class="cls-2" d="M-109.59,411.82h84.27l-.5-4.5v26.6l.5-4.5h-84.27l.49,4.5v-26.6c0-.42.08-4.5-.49-4.5s-.5,4.35-.5,4.5v26.6c0,.34-.06,4.5.5,4.5h84.27c.56,0,.49-4.36.49-4.5v-26.6c0-.35.06-4.5-.49-4.5h-84.27C-110.32,402.82-110.34,411.82-109.59,411.82Z" transform="translate(294.39 -4.22)"/><path class="cls-2" d="M-61.89,497.07c-11.51,0-26.56,3-34.14,12.48-8.43,10.58-3.48,27.54,4.29,36.83,8.68,10.38,22.6,18.48,36.34,13.75,13.13-4.53,18.88-17.31,20.25-30.27.74-7,.35-14.35-3.64-20.38-5.33-8.06-13.56-12.16-23.1-12.41-.65,0-.82,9,0,9,7.11.19,13.5,2.24,18.73,7.21,3.11,3,7.3,8.05,6.92,12.66-.88,10.74-8.2,21-18.21,24.84-11.73,4.45-23.87-.5-32.69-8.57a43.76,43.76,0,0,1-9.43-12,28.94,28.94,0,0,1-2-5c-.82-2.7-.63.76-.27-1.15a9,9,0,0,1,.54-1.67,17.82,17.82,0,0,1,4.81-6.55c8.22-7.25,20.9-9.76,31.57-9.8C-61.15,506.06-61.15,497.06-61.89,497.07Z" transform="translate(294.39 -4.22)"/><path class="cls-6" d="M86.3,288" transform="translate(294.39 -4.22)"/><path class="cls-2" d="M-68.53,617.4c-1.49,2.11-2.76,4.53-5.66,4.52-2,0-3.8-1-5.94-.79-6.22.5-3.52,5.11-7.59,8.28-6.58,5.12-18.71-1.63-21.72,8.86-2.3,8,.6,20,7.39,25.14,4,3,8.86,1,13,3.17s2.63,10.65,4.49,14.89c5,11.36,17.53,7.39,26.13,3.33,5.35-2.52,10.34-4.57,16.36-4.06,4.67.4,9.33.73,11-4.64a18.42,18.42,0,0,0-.29-10.3,13.38,13.38,0,0,0-3.67-5.3,18,18,0,0,0-2.63-2.33c-.5-1.33-1.08-1.54-1.75-.61A7.22,7.22,0,0,1-37,656c4.5-2.42,8.23-4.23,10.63-9.14a19.32,19.32,0,0,0,1.15-12c-1-4.67-4-5.46-8.33-5.84-2.52-.22-5-.43-6.64-2.67s-1.95-5.65-3.43-8.17c-5.86-10-18.12-9.47-24.9-.8-1,1.27-.7,4-.55,5.51,0,.36.58,4,1.28,3.09,5.77-7.37,16.11-9.18,22.42-1.31,2.48,3.1,2.52,7.24,4.87,10.3,2.08,2.7,5.15,2.76,8.29,3.06,1.36.12,3.54.15,4.57,1.21,2,2.07-.08,0-.21.39a9.89,9.89,0,0,1-2.38,3c-2.89,3-8,3.55-10.32,6.82-4,5.52-.69,14.27,3.67,18.32,1.34,1.25,2.56,2.46,3.78,3.83l-.06-1.46-1.66,1.31a6.92,6.92,0,0,1-2.28.68c-2.57.36-5.21-.55-7.78-.55a22.19,22.19,0,0,0-7.42,1.45c-8.54,3-19,11.39-28,4.86-6.73-4.9-1.28-16.1-8.57-20.18-3-1.71-6.78-.68-10-1.61-4-1.15-10.86-8.56-8-12.83,4.45-6.66,16.43.29,21.41-6.93,1.23-1.78,1.13-4.85,3.27-6,1.65-.87,4.19-.43,5.92-.09,4.51.89,5.87-.62,8.48-4.32,1-1.36.7-4,.54-5.51C-67.29,620.15-67.9,616.5-68.53,617.4Z" transform="translate(294.39 -4.22)"/></svg>