<svg id="Camada_1" data-name="Camada 1" xmlns="http://www.w3.org/2000/svg" xmlns:xlink="http://www.w3.org/1999/xlink" viewBox="0 0 380.42 684.7"><defs><style>.cls-1,.cls-2{fill:#1d1d1b;}.cls-1,.cls-6{stroke:#1d1d1b;}.cls-1,.cls-4,.cls-5,.cls-6{stroke-miterlimit:10;}.cls-3{fill:url(#Gradiente_sem_nome_206);}.cls-4{fill:#fff;stroke:#fff;}.cls-5{stroke-width:13px;fill:url(#Gradiente_sem_nome_82);stroke:url(#Gradiente_sem_nome_116);}.cls-6{fill:none;}</style><radialGradient id="Gradiente_sem_nome_206" cx="224.24" cy="228" r="55.49" gradientUnits="userSpaceOnUse"><stop offset="0.13" stop-color="#424242" stop-opacity="0.3"/><stop offset="0.53" stop-color="#797979" stop-opacity="0.21"/><stop offset="1" stop-color="#fff" stop-opacity="0"/></radialGradient><linearGradient id="Gradiente_sem_nome_82" y1="6.5" x2="77.93" y2="6.5" gradientUnits="userSpaceOnUse"><stop offset="0" stop-color="#6c6c6c"/><stop offset="0.36" stop-color="#6e6e6e"/><stop offset="0.52" stop-color="#757575"/><stop offset="0.64" stop-color="#828282"/><stop offset="0.73" stop-color="#949494"/><stop offset="0.82" stop-color="#ababab"/><stop offset="0.89" stop-color="#c7c7c7"/><stop offset="0.96" stop-color="#e8e8e8"/><stop offset="1" stop-color="#fff"/></linearGradient><linearGradient id="Gradiente_sem_nome_116" y1="6.5" x2="77.93" y2="6.5" gradientUnits="userSpaceOnUse"><stop offset="0.04"/><stop offset="0.08" stop-color="#101010"/><stop offset="0.35" stop-color="#646464"/><stop offset="0.58" stop-color="#a6a6a6"/><stop offset="0.77" stop-color="#d6d6d6"/><stop offset="0.92" stop-color="#f4f4f4"/><stop offset="1" stop-color="#fff"/></linearGradient></defs><circle class="cls-1" cx="192.37" cy="32.27" r="9.81"/><path class="cls-2" d="M211.47,29.45l-6.82,18.72L200,61c-.38,1.07-1.79,5.57-2,5.63s-4.8-2-5.68-2.31l-12.86-4.68-18.71-6.81.32,22.1,6.81-18.72,4.69-12.86c.38-1.06,1.79-5.56,2-5.63s4.8,2,5.67,2.31l12.87,4.68,18.71,6.81c.83.3,1.24-10.42,1.24-11.25,0-1.57.72-10.53-1.24-11.25L174.37,15.43l-.33.4L160.42,53.26c-1.34,3.67-1,8.54-.89,12.34,0,1.5-.51,9.13,1.22,9.76L198.17,89l.33-.4,13.62-37.43c1.51-4.14,1-9.51.87-13.84-.06-2,.27-5-.57-6.72C212.32,30.38,211.93,28.17,211.47,29.45Z" transform="translate(167.24 11.1)"/><ellipse class="cls-3" cx="224.24" cy="228" rx="50.27" ry="60.26"/><path class="cls-4" d="M38.73,206.52a23.32,23.32,0,0,0-1.7,6.12c-.45,3.12-1.1,7.69.85,12.26,2.29,5.36,7,7.88,9.7,9.36,1.56.84,10.36,5.59,19.58,2.21a25.22,25.22,0,0,0,8.17-5.27c2.32-2,4.79-4.23,6.29-8a20.12,20.12,0,0,0,1.2-8.34c-.06-3.46-.09-5.45-1.37-7.32s-2.85-2.3-8-4.26c-9.26-3.53-7.9-3.53-9.87-3.91-5.2-1-5,.86-14.13.51-3.06-.12-4.64-.39-6.46.68C40.75,201.87,39.71,204.28,38.73,206.52Z" transform="translate(167.24 11.1)"/><path class="cls-4" d="M38.51,168.75c4.42-3.79,15.52-3.92,22.43-.9,15.47,6.76,10.19,29.36,2.14,31.1-2.79.61-5.8-1.32-9.61-3.75C42.58,188.24,31.63,174.68,38.51,168.75Z" transform="translate(167.24 11.1)"/><line class="cls-5" y1="6.5" x2="77.93" y2="6.5"/><image width="10026" height="9865" transform="translate(34.8 148.19) scale(0)" xlink:href="../../PROJECTOS%20FILIPA/projecto%20aldeia/CAU%202021%20DGARTES-CRIA%C3%87%C3%83O/OPERACIONAL/DESIGN%20GR%C3%81FICO%20PLANO%20DE%20MEIOS/logotipo%20cau/cau%20simbolo-Model.jpg"/><path class="cls-2" d="M17.56,396.5h84.27l-.5-4.5v26.6l.5-4.5H17.56l.49,4.5V392c0-.42.08-4.5-.49-4.5s-.5,4.35-.5,4.5v26.6c0,.35-.06,4.5.5,4.5h84.27c.56,0,.49-4.36.49-4.5V392c0-.35.06-4.5-.49-4.5H17.56C16.83,387.5,16.81,396.5,17.56,396.5Z" transform="translate(167.24 11.1)"/><path class="cls-2" d="M65.26,481.75c-11.51,0-26.56,3-34.14,12.48-8.43,10.58-3.48,27.54,4.29,36.83,8.68,10.38,22.6,18.48,36.34,13.75C84.88,540.28,90.63,527.5,92,514.54c.74-7,.35-14.34-3.64-20.38C83,486.1,74.8,482,65.26,481.75c-.65,0-.83,9,0,9,7.11.19,13.5,2.24,18.73,7.21,3.11,3,7.3,8.05,6.92,12.66-.88,10.75-8.2,21-18.21,24.84C61,539.91,48.83,535,40,526.89a43.76,43.76,0,0,1-9.43-12,28.62,28.62,0,0,1-2-5c-.82-2.7-.63.76-.27-1.15a9,9,0,0,1,.54-1.67,17.6,17.6,0,0,1,4.81-6.55c8.21-7.25,20.9-9.76,31.57-9.8C66,490.74,66,481.74,65.26,481.75Z" transform="translate(167.24 11.1)"/><path class="cls-6" d="M213.45,272.68" transform="translate(167.24 11.1)"/><path class="cls-2" d="M58.61,602.08c-1.48,2.11-2.75,4.53-5.65,4.53-2,0-3.8-1-5.94-.8-6.22.5-3.52,5.11-7.59,8.28-6.58,5.12-18.71-1.63-21.73,8.86-2.29,8,.61,20,7.4,25.14,4,3,8.86,1,13,3.17s2.63,10.65,4.49,14.89c5,11.36,17.53,7.39,26.13,3.33,5.35-2.52,10.34-4.57,16.36-4.06,4.67.4,9.33.73,11-4.64a18.51,18.51,0,0,0-.29-10.3,13.27,13.27,0,0,0-3.68-5.29,17.49,17.49,0,0,0-2.62-2.34c-.5-1.33-1.08-1.54-1.75-.61a7.22,7.22,0,0,1,2.45-1.53c4.5-2.42,8.23-4.23,10.63-9.14a19.25,19.25,0,0,0,1.14-12c-1-4.67-4-5.46-8.32-5.84-2.52-.22-5-.43-6.64-2.67s-2-5.65-3.43-8.17c-5.86-10-18.12-9.47-24.91-.8-1,1.27-.69,4-.54,5.51,0,.36.58,4,1.27,3.09,5.78-7.36,16.12-9.18,22.43-1.31,2.48,3.1,2.52,7.24,4.87,10.3,2.08,2.71,5.15,2.76,8.28,3.06,1.37.13,3.55.15,4.58,1.22,2,2.06-.08,0-.21.38a9.78,9.78,0,0,1-2.39,3c-2.88,3-8,3.55-10.32,6.82-4,5.52-.68,14.27,3.68,18.32,1.34,1.25,2.56,2.46,3.78,3.83L94,654.87l-1.66,1.32a7.22,7.22,0,0,1-2.28.67c-2.57.36-5.21-.55-7.78-.55a22.3,22.3,0,0,0-7.43,1.45c-8.53,3-19,11.39-27.95,4.86-6.73-4.9-1.28-16.1-8.57-20.18-3.05-1.71-6.78-.68-10-1.61-4-1.15-10.86-8.56-8-12.83,4.45-6.66,16.42.3,21.41-6.93,1.23-1.78,1.13-4.85,3.27-6,1.65-.87,4.19-.43,5.92-.09,4.51.89,5.87-.62,8.47-4.32,1-1.36.71-3.95.55-5.51C59.86,604.83,59.25,601.18,58.61,602.08Z" transform="translate(167.24 11.1)"/></svg>