<svg width="159" height="145" viewBox="0 0 159 145" fill="none" xmlns="http://www.w3.org/2000/svg">
<path d="M77.3584 12.2359C74.6118 16.1527 72.2363 20.6449 66.8544 20.6449C63.1427 20.6449 59.8021 18.7886 55.8492 19.1598C44.3059 20.088 49.2981 28.6455 41.7448 34.53C29.5333 44.0342 7.02196 31.5042 1.43587 50.9766C-2.81401 65.8269 2.54938 88.1024 15.1506 97.6438C22.5739 103.213 31.5933 99.5 39.2765 103.528C46.9597 107.556 44.1388 123.298 47.6092 131.168C56.8885 152.256 80.1422 144.886 96.1025 137.368C106.031 132.672 115.292 128.866 126.446 129.832C135.131 130.556 143.779 131.168 146.86 121.219C148.503 114.918 148.316 108.279 146.322 102.08C144.887 98.2998 142.548 94.9284 139.511 92.2605C138.037 90.654 136.402 89.2045 134.63 87.9353C133.72 85.4479 132.625 85.0581 131.382 86.7844C132.694 85.545 134.24 84.5796 135.929 83.9443C144.299 79.4521 151.202 76.0922 155.656 66.9778C158.734 59.9727 159.482 52.1646 157.791 44.7024C155.935 36.0335 150.367 34.567 142.35 33.8616C137.673 33.4532 133.071 33.0634 130.009 28.9054C126.947 24.7473 126.39 18.4359 123.662 13.7395C112.787 -4.82336 90.0339 -3.8395 77.4327 12.2545C75.5768 14.612 76.1336 19.6797 76.412 22.4827C76.412 23.1509 77.5069 29.9078 78.7874 28.2185C89.4956 14.5563 108.704 11.1778 120.395 25.7868C125.016 31.5413 125.091 39.2263 129.452 44.9251C133.294 49.9371 139.01 50.0299 144.818 50.494C147.361 50.7353 151.407 50.7725 153.318 52.7587C157.03 56.5827 153.17 52.7586 152.928 53.464C151.823 55.5892 150.317 57.4802 148.493 59.0329C143.148 64.6017 133.646 65.6042 129.341 71.6743C121.917 81.921 128.06 98.182 136.152 105.681C138.657 108.02 140.921 110.248 143.167 112.791L143.074 110.099L139.993 112.531C138.655 113.177 137.219 113.597 135.743 113.775C130.974 114.462 126.074 112.772 121.323 112.754C116.607 112.857 111.943 113.767 107.534 115.445C91.6856 121.014 72.2734 136.607 55.5708 124.467C43.0996 115.371 53.2139 94.5808 39.6848 87.0071C34.1173 83.8329 27.1022 85.7635 21.1264 84.0186C13.703 81.8838 0.971915 68.1287 6.27963 60.2023C14.5381 47.8395 36.7711 60.7592 46.0132 47.3383C48.2959 44.0341 48.1103 38.3353 52.0818 36.2006C55.144 34.5856 59.8764 35.4024 63.087 36.0521C71.4568 37.6857 73.9808 34.8826 78.806 28.0144C80.6618 25.4898 80.1236 20.5892 79.8267 17.7862C79.6597 17.3407 78.5462 10.5653 77.3584 12.2359Z" fill="#1D1D1B"/>
</svg>
