<svg width="123" height="121" viewBox="0 0 123 121" fill="none" xmlns="http://www.w3.org/2000/svg">
<path d="M72.4836 0.852661C51.1414 0.852661 23.1924 6.42149 9.14367 24.0191C-6.51965 43.6586 2.66677 75.1413 17.0867 92.3862C33.214 111.654 59.0473 126.69 84.528 117.91C108.895 109.501 119.585 85.7778 122.127 61.7203C123.501 48.7263 122.758 35.1011 115.354 23.9077C105.462 8.92748 90.1884 1.3353 72.4836 0.852661C71.2959 0.852661 70.9618 17.5592 72.4836 17.5592C85.6787 17.9119 97.5375 21.7174 107.262 30.9431C113.015 36.512 120.81 45.8862 120.105 54.4622C118.453 74.3988 104.868 93.4443 86.2911 100.554C64.522 108.814 42.0107 99.6443 25.6421 84.6455C18.5492 78.2983 12.6202 70.7596 8.12295 62.37C6.61286 59.3925 5.37072 56.2864 4.41126 53.0886C2.88947 48.0766 3.24209 54.4993 3.92875 50.9538C4.16362 49.8932 4.49279 48.8558 4.91235 47.8539C6.91199 43.1625 9.97424 39.0001 13.8575 35.6952C29.094 22.2371 52.6446 17.5779 72.4279 17.5036C73.8569 17.5593 73.8569 0.852661 72.4836 0.852661Z" fill="#1D1D1B"/>
</svg>
