<svg width="100" height="137" viewBox="0 0 100 137" fill="none" xmlns="http://www.w3.org/2000/svg">
<path d="M96.8266 26.2725L84.1883 61.0036L75.503 84.894C74.7792 86.8617 72.181 95.215 71.7913 95.3263C71.4016 95.4377 62.8832 91.6138 61.2687 91.0383L37.384 82.3509L2.69826 69.7096L3.31066 110.734L15.949 75.9838L24.6343 52.112C25.3581 50.1443 27.9563 41.791 28.346 41.6611C28.7357 41.5311 37.254 45.3736 38.8686 45.9491L62.7533 54.6365L97.4762 67.2778C99.0165 67.8347 99.7774 47.9353 99.7774 46.3946C99.7774 43.4802 101.114 26.8479 97.4762 25.5114L27.9748 0.228745L27.3624 0.971255L2.08585 70.4521C-0.382416 77.2647 0.322777 86.3048 0.434127 93.3772C0.434127 96.1431 -0.51235 110.307 2.69826 111.476L72.1624 136.759L72.7749 136.016L98.0515 66.5353C100.835 58.8689 99.9073 48.882 99.6475 40.8443C99.5361 37.1317 100.167 31.5629 98.5897 28.3701C98.4041 27.9802 97.6989 23.8778 96.8266 26.2725Z" fill="#1D1D1B"/>
</svg>
