<svg width="188" height="225" viewBox="0 0 188 225" fill="none" xmlns="http://www.w3.org/2000/svg">
<path d="M94.1543 224.093C145.679 224.093 187.448 174.012 187.448 112.234C187.448 50.455 145.679 0.373657 94.1543 0.373657C42.6299 0.373657 0.861084 50.455 0.861084 112.234C0.861084 174.012 42.6299 224.093 94.1543 224.093Z" fill="url(#paint0_radial)"/>
<path d="M60.2852 92.9467C58.7116 96.5765 57.6438 100.405 57.1117 104.326C56.2951 110.099 55.0888 118.582 58.7077 127.065C62.9391 137.015 71.6987 141.693 76.7095 144.44C79.586 145.999 95.9174 154.817 113.028 148.561C118.673 146.313 123.823 142.984 128.191 138.76C132.496 134.955 137.099 130.908 139.882 123.91C141.704 118.963 142.456 113.687 142.091 108.428C141.998 102.005 141.942 98.3114 139.567 94.8401C137.191 91.3689 134.259 90.5892 124.72 86.9324C107.535 80.3797 110.059 80.3797 106.403 79.6743C96.7526 77.818 97.0124 81.2707 80.1799 80.621C74.501 80.3982 71.5688 79.897 68.1726 81.8832C63.9969 84.315 62.1411 88.8629 60.2852 92.9467Z" fill="white" stroke="white" stroke-miterlimit="10"/>
<path d="M59.8584 22.8347C68.0426 15.7994 88.6425 15.5581 101.485 21.1641C130.176 33.7126 120.377 75.6647 105.438 78.9132C100.26 80.027 94.674 76.4629 87.6032 71.9336C67.3931 59.0138 47.0716 33.8425 59.8584 22.8347Z" fill="white" stroke="white" stroke-miterlimit="10"/>
<defs>
<radialGradient id="paint0_radial" cx="0" cy="0" r="1" gradientUnits="userSpaceOnUse" gradientTransform="translate(94.1543 112.234) scale(102.981 103.005)">
<stop offset="0.13" stop-color="#424242" stop-opacity="0.3"/>
<stop offset="0.53" stop-color="#797979" stop-opacity="0.21"/>
<stop offset="1" stop-color="white" stop-opacity="0"/>
</radialGradient>
</defs>
</svg>
